<?xml version="1.0" encoding="iso-8859-1"?>
<!-- Generator: Adobe Illustrator 19.0.0, SVG Export Plug-In . SVG Version: 6.00 Build 0)  -->
<svg version="1.1" id="Layer_1" xmlns="http://www.w3.org/2000/svg" xmlns:xlink="http://www.w3.org/1999/xlink" x="0px" y="0px"
	 viewBox="0 0 389.609 389.609" style="enable-background:new 0 0 389.609 389.609;" xml:space="preserve">
<g>
	<g>
		<path d="M387.523,157.759c-1.854-2.782-4.636-4.636-7.727-5.254c-3.4-0.618-6.491,0-9.273,1.855
			c-12.364,8.345-29.055,12.982-46.364,12.982H65.141c-17.309,0-33.691-4.636-46.055-12.982c-5.563-4.018-13.291-2.473-16.999,3.091
			c-1.855,2.782-2.473,6.182-1.855,9.273c0.618,3.091,2.473,5.872,5.255,7.727c16.381,11.127,37.709,17.309,59.963,17.309h259.018
			c22.255,0,43.581-6.182,59.655-17c2.782-1.855,4.636-4.636,5.254-7.727C389.996,163.632,389.378,160.541,387.523,157.759z
			 M383.505,166.105c-0.309,1.855-1.236,3.091-2.473,4.018c-15.454,10.2-35.546,16.072-56.564,16.072H65.45
			c-21.018,0-40.8-5.563-56.255-16.072c-1.236-0.928-2.164-2.473-2.473-4.018c-0.31-1.546,0-3.4,0.927-4.636
			c1.236-1.854,3.091-2.782,4.945-2.782c0.927,0,2.164,0.309,3.4,1.546c13.291,8.964,30.909,13.909,49.455,13.909h259.019
			c18.854,0,36.473-5.254,49.764-14.218c1.546-0.928,3.091-1.237,4.636-0.928c1.546,0.309,2.782,1.236,3.709,2.473
			C383.505,163.014,383.814,164.25,383.505,166.105z"/>
	</g>
</g>
<g>
	<g>
		<path d="M73.486,194.85c-11.746,0-21.328,9.582-21.328,21.328c0,11.746,9.582,21.328,21.328,21.328s21.328-9.582,21.328-21.328
			C94.813,204.432,85.231,194.85,73.486,194.85z M73.486,231.323c-8.345,0-15.145-6.8-15.145-15.145s6.8-15.145,15.145-15.145
			c8.346,0,15.145,6.8,15.145,15.145S81.831,231.323,73.486,231.323z"/>
	</g>
</g>
<g>
	<g>
		<path d="M82.45,212.778c-1.854,0-3.091,1.236-3.091,3.091c0,3.4-2.782,6.182-6.182,6.182c-3.4,0-6.182-2.782-6.182-6.182
			c0-3.4,2.782-6.182,6.182-6.182c1.854,0,3.091-1.236,3.091-3.091c0-1.854-1.236-3.091-3.091-3.091
			c-6.8,0-12.364,5.563-12.364,12.364c0,6.8,5.563,12.364,12.364,12.364c6.8,0,12.364-5.564,12.364-12.364
			C85.54,214.015,84.304,212.778,82.45,212.778z"/>
	</g>
</g>
<g>
	<g>
		<path d="M316.741,194.85c-11.746,0-21.328,9.582-21.328,21.328c0,11.746,9.582,21.328,21.328,21.328
			c11.745,0,21.327-9.582,21.327-21.328C338.068,204.432,328.486,194.85,316.741,194.85z M316.741,231.014
			c-8.345,0-15.145-6.8-15.145-15.145s6.8-15.145,15.145-15.145c8.345,0,15.145,6.8,15.145,15.145S325.086,231.014,316.741,231.014z
			"/>
	</g>
</g>
<g>
	<g>
		<path d="M326.014,212.468c-1.854,0-3.091,1.236-3.091,3.091c0,3.4-2.782,6.182-6.182,6.182s-6.182-2.782-6.182-6.182
			c0-3.4,2.782-6.182,6.182-6.182c1.854,0,3.091-1.236,3.091-3.091c0-1.854-1.236-3.091-3.091-3.091
			c-6.8,0-12.364,5.563-12.364,12.364s5.563,12.364,12.364,12.364c6.799,0,12.054-5.563,12.364-12.364
			C329.104,213.705,327.868,212.468,326.014,212.468z"/>
	</g>
</g>
<g>
	<g>
		<path d="M73.177,185.577c-1.854,0-3.091,1.236-3.091,3.091v6.182c0,1.854,1.236,3.091,3.091,3.091
			c1.855,0,3.091-1.545,3.091-3.091v-6.182C76.268,186.814,75.032,185.577,73.177,185.577z"/>
	</g>
</g>
<g>
	<g>
		<path d="M316.741,185.577c-1.854,0-3.091,1.236-3.091,3.091v6.182c0,1.854,1.236,3.091,3.091,3.091
			c1.545,0,3.091-1.545,3.091-3.091v-6.182C319.832,186.814,318.595,185.577,316.741,185.577z"/>
	</g>
</g>
<g>
</g>
<g>
</g>
<g>
</g>
<g>
</g>
<g>
</g>
<g>
</g>
<g>
</g>
<g>
</g>
<g>
</g>
<g>
</g>
<g>
</g>
<g>
</g>
<g>
</g>
<g>
</g>
<g>
</g>
</svg>
